<!-- Generator: Adobe Illustrator 22.1.0, SVG Export Plug-In  -->
<svg version="1.1"
	 xmlns="http://www.w3.org/2000/svg" xmlns:xlink="http://www.w3.org/1999/xlink" xmlns:a="http://ns.adobe.com/AdobeSVGViewerExtensions/3.0/"
	 x="0px" y="0px" width="157.9px" height="53.5px" viewBox="0 0 157.9 53.5"  preserveAspectRatio="none meet" style="enable-background:new 0 0 157.9 53.5;"
	 xml:space="preserve">
<style type="text/css">
	.st0{fill:#98D2CE;}
	.st1{fill:none;stroke:#A09FA8;stroke-width:0.75;stroke-linecap:round;stroke-linejoin:round;stroke-miterlimit:10;}
	.st2{fill:none;stroke:#E2D668;stroke-miterlimit:10;}
</style>
<defs>
</defs>
<path class="st0" d="M157.5,53.5V30.7c0,2.1-4.8,7.4-4.8,7.4l-6.9-0.2l-7.1,6.6l-8-2.7l-6,4.1l-5-16.6l-5,16h-5.6l-5-9.3l-11-6.3
	L82,44.7l-11-8.2l-5.6,8.2L49.3,32.1L44,0.4l-5.3,32.3l-5.6,1.6L22.4,23.7l-5.8-0.2l-4.4,3L6.1,39L0.4,11.5v42.1H157.5z"/>
<path class="st1" d="M0.4,11.5L6.1,39l6.1-12.5l4.4-3l5.8,0.2l10.8,10.5l5.6-1.6L44,0.4l5.3,31.7l16.1,12.6l5.6-8.2l11,8.2
	l11.1-15.1l11,6.3l5,9.3h5.6l5-16l5,16.6l6-4.1l8,2.7l7.1-6.6l6.9,0.2c0,0,4.8-5.3,4.8-7.4"/>
<polyline class="st2" points="0.3,50.2 5.8,51.9 11.3,46.7 16.9,51.9 22.4,46.7 27.6,48 33.1,21 38.1,37.9 44.4,39.3 49.6,46.7 
	53.4,49.8 59.1,51.2 71.6,51.9 76.3,48.6 82.6,50.5 87.6,45.3 93.8,44.8 99.8,46.6 104.1,50.2 108.8,51.9 115.6,51.9 119.9,50.3 
	125.3,51.9 131.4,49.9 148.1,50.5 152.1,51.9 157.6,48.5 "/>
</svg>
