<svg xmlns="http://www.w3.org/2000/svg" viewBox="821 432 279.891 217.079"><defs><style>.a{fill:#cce6c9;}.a,.b,.c,.d,.e,.g{opacity:0.9;}.b{fill:#a5d5ae;}.c{fill:#78c69c;}.d{fill:#35ba8d;}.e{fill:#27ac89;}.f{fill:#262424;}.g{fill:#40c097;}</style></defs><g transform="translate(821.001 432.002)"><path class="a" d="M389.61,94.76c-11.6-5.48-46.49-8.84-79.55,29.82s-56.61,98.23-48.35,111.18,51.74-4.38,70.5,3.93S426.36,327,463.34,304.53c32.38-19.69,9.21-77.4-23.41-115.63C413.24,157.63,427.21,112.52,389.61,94.76Z" transform="translate(-260.05 -91.46)"/><path class="b" d="M388.32,107c-10.38-4.76-41.5-7.92-70.85,25.82s-50.14,85.82-42.73,97.2,44.57-6.63,61.33.71S421.93,310.55,454.83,291c28.81-17.13-.46-66.12-26.17-96.16C405,167.18,417.54,120.37,388.32,107Z" transform="translate(-260.05 -91.46)"/><path class="c" d="M387.54,116.22c-8.75-5.16-37-7.06-63.19,23.07s-44.74,76.62-38.13,86.78,39.75-5.93,54.7.62,76.56,71.24,105.9,53.78c25.7-15.3-3.9-61.32-26.83-88.13C398.87,167.66,412.51,131,387.54,116.22Z" transform="translate(-260.05 -91.46)"/><path class="d" d="M386.58,126.87c-7.84-4-32-6.12-54.66,19.82s-38.64,66-32.92,74.72,34.39-5.08,47.33.58,66.3,61.44,91.68,46.42c22.22-13.15-5.86-51.94-25.72-75.05C394,172.07,406.77,137.16,386.58,126.87Z" transform="translate(-260.05 -91.46)"/><path class="e" d="M383.82,137.94c-6.4-2.81-20.76-3.5-39.81,16.4s-33.44,51.28-29.26,58.46,27.5-2.86,37.53,2.1,50,51.28,70.79,40.18c18.19-9.73-1.29-43.25-18.57-62.12C386.17,172.95,399.16,144.68,383.82,137.94Z" transform="translate(-260.05 -91.46)"/><path class="f" d="M353.28,219.84h-2.15V189H368v2H353.28v13.06h13.91v2H353.28v13.76Z" transform="translate(-260.05 -91.46)"/><path class="f" d="M386.17,219.84l-.53-3.62h-.17a10.88,10.88,0,0,1-3.55,3.13,9.48,9.48,0,0,1-4.31.92,7.45,7.45,0,0,1-5.25-1.73,6.18,6.18,0,0,1-1.88-4.78,5.9,5.9,0,0,1,2.79-5.2q2.79-1.85,8.08-2l4.36-.13v-1.52A7.79,7.79,0,0,0,384.4,200a5.15,5.15,0,0,0-4.28-1.66,14.31,14.31,0,0,0-6.6,1.77l-.78-1.81a17.45,17.45,0,0,1,7.46-1.77q3.77,0,5.64,2t1.86,6.11v15.24h-1.54Zm-8.43-1.48a7.29,7.29,0,0,0,7.9-7.92v-2.25l-4,.17q-4.83.23-6.88,1.51a4.34,4.34,0,0,0-2.06,4,4.27,4.27,0,0,0,1.32,3.34,5.35,5.35,0,0,0,3.72,1.15Z" transform="translate(-260.05 -91.46)"/><path class="f" d="M404.15,196.49a18,18,0,0,1,3.12.29l-.4,2a12.209,12.209,0,0,0-3-.36,5.77,5.77,0,0,0-4.8,2.49,10.13,10.13,0,0,0-1.88,6.28v12.64H395.1v-22.9h1.77l.21,4.13h.15a9.72,9.72,0,0,1,3-3.55,7.06,7.06,0,0,1,3.92-1.02Z" transform="translate(-260.05 -91.46)"/><path class="f" d="M440.54,219.84v-15q0-3.35-1.31-4.89a5,5,0,0,0-4-1.54q-3.52,0-5.2,1.94t-1.69,6.09v13.42h-2.13V204.18q0-5.79-5.31-5.8-3.6,0-5.25,2.1T414,207.19v12.64h-2.09v-22.9h1.73l.44,3.14h.13a6.56,6.56,0,0,1,2.7-2.64,8,8,0,0,1,3.86-.94q5.41,0,7,4.07h.08a7.79,7.79,0,0,1,3-3,8.64,8.64,0,0,1,4.29-1.05q3.75,0,5.63,2t1.88,6.36v15h-2.07Z" transform="translate(-260.05 -91.46)"/><path class="f" d="M449.73,190.57q0-2,1.33-2a1.18,1.18,0,0,1,1,.53,2.59,2.59,0,0,1,.37,1.5,2.65,2.65,0,0,1-.37,1.5,1.17,1.17,0,0,1-1,.55Q449.73,192.61,449.73,190.57Zm2.38,29.27H450V196.93h2.09v22.91Z" transform="translate(-260.05 -91.46)"/><path class="f" d="M475.75,219.84V205q0-3.46-1.45-5a5.87,5.87,0,0,0-4.51-1.57q-4.11,0-6,2.08t-1.91,6.73v12.64h-2.09V196.93h1.77l.4,3.14h.13q2.23-3.58,7.94-3.58,7.8,0,7.8,8.37v15h-2.06Z" transform="translate(-260.05 -91.46)"/><path class="f" d="M503.1,196.93v1.45l-4.74.3a8.09,8.09,0,0,1,1.9,5.18,7,7,0,0,1-2.2,5.36,8.32,8.32,0,0,1-5.91,2.05,12.858,12.858,0,0,1-2.19-.13,5.44,5.44,0,0,0-1.9,1.54,3.11,3.11,0,0,0-.65,1.88,1.74,1.74,0,0,0,.83,1.6,5.67,5.67,0,0,0,2.79.51h4a9.3,9.3,0,0,1,5.71,1.51,5.25,5.25,0,0,1,2,4.46,6.34,6.34,0,0,1-2.94,5.59q-2.94,2-8.38,2a11.53,11.53,0,0,1-6.69-1.66,5.35,5.35,0,0,1-2.37-4.64,5.5,5.5,0,0,1,1.46-3.92,7.59,7.59,0,0,1,4-2.13,4,4,0,0,1-1.65-1.25,3,3,0,0,1-.62-1.86q0-2.3,2.93-4a6.53,6.53,0,0,1-3.12-2.58,7.36,7.36,0,0,1-1.12-4,7.25,7.25,0,0,1,2.18-5.51,8.19,8.19,0,0,1,5.89-2.08,10.86,10.86,0,0,1,3.5.44h7.33Zm-18.54,26.78q0,4.72,7,4.72,9,0,9-5.75a3.32,3.32,0,0,0-1.41-3,8.6,8.6,0,0,0-4.57-.93h-3.75q-6.27.01-6.27,4.96Zm1.75-19.64a5.29,5.29,0,0,0,1.61,4.12,7.22,7.22,0,0,0,8.7,0,5.54,5.54,0,0,0,1.53-4.21,5.73,5.73,0,0,0-1.57-4.39,6.19,6.19,0,0,0-4.39-1.46,5.82,5.82,0,0,0-4.31,1.57,5.91,5.91,0,0,0-1.57,4.37Z" transform="translate(-260.05 -91.46)"/><rect class="g" width="27.17" height="8.64" rx="4.32" transform="translate(252.72 128.11)"/><path class="f" d="M360.54,153.8a6.72,6.72,0,0,0-3.67.91,3,3,0,0,0-1.43,2.75,3.2,3.2,0,0,0,1.43,2.82,21.61,21.61,0,0,0,6.1,2.1,16.79,16.79,0,0,1,7,3.17,7.51,7.51,0,0,1,2.36,6,8,8,0,0,1-3,6.44,11.93,11.93,0,0,1-7.85,2.47,18.44,18.44,0,0,1-12.62-4.9l3.21-3.86a14.45,14.45,0,0,0,9.55,4,6.52,6.52,0,0,0,3.93-1.06,3.33,3.33,0,0,0,1.45-2.82,3.17,3.17,0,0,0-1.37-2.73,14.39,14.39,0,0,0-4.71-1.78,42.121,42.121,0,0,1-5.07-1.47,11.43,11.43,0,0,1-3.08-1.76q-2.69-2-2.69-6.25a7.6,7.6,0,0,1,3.06-6.49,12.32,12.32,0,0,1,7.57-2.28,18.159,18.159,0,0,1,5.77,1,15.09,15.09,0,0,1,4.95,2.69l-2.73,3.86a10.35,10.35,0,0,0-3.64-2,14.06,14.06,0,0,0-4.52-.81Z" transform="translate(-260.05 -91.46)"/><path class="f" d="M173.18,64.55l4.06,9.2,5.47.03-6.8-15.43h-5.46l-6.76,15.33,5.45.03Z"/><path class="f" d="M157.09,88.67h5.46l3.04-6.89,1.53-3.47-5.46-.03Z"/><path class="f" d="M179.28,78.38l1.49,3.4,3.04,6.89h5.47l-4.53-10.26Z"/><path class="f" d="M184.9,78.41l10.42.08-.03-4.64-12.58-.07,2.04,4.63Z"/><path class="f" d="M177.24,73.75l-8.1-.04-1.47,3.34-.55,1.26,5.16.03,7,.04-.59-1.33Z"/><path class="f" d="M135.78,77.39l-9.15-19.04h-7.98V88.67h5.12V64.99l10.54,21.04h2.86l13.96-27.68h-6.19Z"/><path class="f" d="M150.44,78.34l-2.68-.01V88.67h5.12V78.35Z"/><path class="f" d="M150.44,58.37l-2.68-.02V73.38h5.12V58.39Z"/><path class="f" d="M182.71,73.78l-5.47-.03,1.45,3.3.59,1.33,5.47.03Z"/><path class="f" d="M458.66,154.45h6.51q4.12,0,5.73,1.11t1.6,4.08a5.4,5.4,0,0,1-1.56,4.32q-1.56,1.34-5.9,1.34H462.1l10.53,14.84h6.51l-7.94-11q6.55-2,6.55-9.46,0-5.16-3-7.51t-9.94-2.34H453.54v30.33h5.12Z" transform="translate(-260.05 -91.46)"/><path class="f" d="M496.14,154.49v25.64H491V154.49h-9.2V149.8h23.51v4.69h-9.2Z" transform="translate(-260.05 -91.46)"/></g></svg>